<svg id="visual" viewBox="0 0 900 600" width="900" height="600" xmlns="http://www.w3.org/2000/svg" xmlns:xlink="http://www.w3.org/1999/xlink" version="1.1"><path d="M0 139L13.7 137C27.3 135 54.7 131 82 135C109.3 139 136.7 151 163.8 156C191 161 218 159 245.2 154C272.3 149 299.7 141 327 139C354.3 137 381.7 141 409 143C436.3 145 463.7 145 491 155C518.3 165 545.7 185 573 191C600.3 197 627.7 189 654.8 196C682 203 709 225 736.2 215C763.3 205 790.7 163 818 145C845.3 127 872.7 133 886.3 136L900 139L900 0L886.3 0C872.7 0 845.3 0 818 0C790.7 0 763.3 0 736.2 0C709 0 682 0 654.8 0C627.7 0 600.3 0 573 0C545.7 0 518.3 0 491 0C463.7 0 436.3 0 409 0C381.7 0 354.3 0 327 0C299.7 0 272.3 0 245.2 0C218 0 191 0 163.8 0C136.7 0 109.3 0 82 0C54.7 0 27.3 0 13.7 0L0 0Z" fill="#efefef"></path><path d="M0 199L13.7 194C27.3 189 54.7 179 82 181C109.3 183 136.7 197 163.8 212C191 227 218 243 245.2 242C272.3 241 299.7 223 327 218C354.3 213 381.7 221 409 218C436.3 215 463.7 201 491 204C518.3 207 545.7 227 573 240C600.3 253 627.7 259 654.8 272C682 285 709 305 736.2 290C763.3 275 790.7 225 818 203C845.3 181 872.7 187 886.3 190L900 193L900 137L886.3 134C872.7 131 845.3 125 818 143C790.7 161 763.3 203 736.2 213C709 223 682 201 654.8 194C627.7 187 600.3 195 573 189C545.7 183 518.3 163 491 153C463.7 143 436.3 143 409 141C381.7 139 354.3 135 327 137C299.7 139 272.3 147 245.2 152C218 157 191 159 163.8 154C136.7 149 109.3 137 82 133C54.7 129 27.3 133 13.7 135L0 137Z" fill="#ebebeb"></path><path d="M0 331L13.7 320C27.3 309 54.7 287 82 284C109.3 281 136.7 297 163.8 316C191 335 218 357 245.2 353C272.3 349 299.7 319 327 312C354.3 305 381.7 321 409 330C436.3 339 463.7 341 491 352C518.3 363 545.7 383 573 385C600.3 387 627.7 371 654.8 372C682 373 709 391 736.2 382C763.3 373 790.7 337 818 326C845.3 315 872.7 329 886.3 336L900 343L900 191L886.3 188C872.7 185 845.3 179 818 201C790.7 223 763.3 273 736.2 288C709 303 682 283 654.8 270C627.7 257 600.3 251 573 238C545.7 225 518.3 205 491 202C463.7 199 436.3 213 409 216C381.7 219 354.3 211 327 216C299.7 221 272.3 239 245.2 240C218 241 191 225 163.8 210C136.7 195 109.3 181 82 179C54.7 177 27.3 187 13.7 192L0 197Z" fill="#e7e7e7"></path><path d="M0 397L13.7 385C27.3 373 54.7 349 82 355C109.3 361 136.7 397 163.8 418C191 439 218 445 245.2 428C272.3 411 299.7 371 327 367C354.3 363 381.7 395 409 418C436.3 441 463.7 455 491 471C518.3 487 545.7 505 573 503C600.3 501 627.7 479 654.8 479C682 479 709 501 736.2 482C763.3 463 790.7 403 818 384C845.3 365 872.7 387 886.3 398L900 409L900 341L886.3 334C872.7 327 845.3 313 818 324C790.7 335 763.3 371 736.2 380C709 389 682 371 654.8 370C627.7 369 600.3 385 573 383C545.7 381 518.3 361 491 350C463.7 339 436.3 337 409 328C381.7 319 354.3 303 327 310C299.7 317 272.3 347 245.2 351C218 355 191 333 163.8 314C136.7 295 109.3 279 82 282C54.7 285 27.3 307 13.7 318L0 329Z" fill="#dfdfdf"></path><path d="M0 601L13.7 601C27.3 601 54.7 601 82 601C109.3 601 136.7 601 163.8 601C191 601 218 601 245.2 601C272.3 601 299.7 601 327 601C354.3 601 381.7 601 409 601C436.3 601 463.7 601 491 601C518.3 601 545.7 601 573 601C600.3 601 627.7 601 654.8 601C682 601 709 601 736.2 601C763.3 601 790.7 601 818 601C845.3 601 872.7 601 886.3 601L900 601L900 407L886.3 396C872.7 385 845.3 363 818 382C790.7 401 763.3 461 736.2 480C709 499 682 477 654.8 477C627.7 477 600.3 499 573 501C545.7 503 518.3 485 491 469C463.7 453 436.3 439 409 416C381.7 393 354.3 361 327 365C299.7 369 272.3 409 245.2 426C218 443 191 437 163.8 416C136.7 395 109.3 359 82 353C54.7 347 27.3 371 13.7 383L0 395Z" fill="#d7d7d7"></path></svg>